<?xml version="1.0" encoding="utf-8"?>
<!-- Generator: Adobe Illustrator 18.0.0, SVG Export Plug-In . SVG Version: 6.00 Build 0)  -->
<!DOCTYPE svg PUBLIC "-//W3C//DTD SVG 1.1//EN" "http://www.w3.org/Graphics/SVG/1.1/DTD/svg11.dtd">
<svg version="1.1" id="Layer_1" xmlns="http://www.w3.org/2000/svg" xmlns:xlink="http://www.w3.org/1999/xlink" x="0px" y="0px"
	 viewBox="0 0 198.4 145.6" enable-background="new 0 0 198.4 145.6" xml:space="preserve">
<circle fill="#424241" cx="71.6" cy="35.6" r="31.7"/>
<path fill="#B2B2B2" d="M178.7,51.3c-0.3-2.4-1.7-4.1-4-4.7c-1.1-0.3-2.3-0.1-3.4,0c-0.5,0-1,0.3-1.4,0.6
	c-5.5,4.3-11.8,4.8-18.5,4.6c-17.4-0.3-34.7-0.1-52.1-0.1c-0.3,0-0.6,0-0.8,0l-1.8-6L90,45.7c-1.7-2-3.4-4-5.3-6.2
	c-2.4,3.5-4.7,6.8-7.1,10.3c-4.6-2.9-9.1-5.7-13.6-8.5c-0.4-0.3-0.8-0.9-0.8-1.4c-0.1-6.7,0-13.4,0-20.4c1.6,0,3,0,4.7,0
	c0,5,0.2,9.8-0.1,14.7c-0.2,3,0.6,4.9,3.4,6.2c1.7,0.7,3.1,1.9,4.9,3c5.9-8.5,11.8-16.9,17.9-25.7c-4.3-0.9-8.4-1.8-12.4-2.6
	c-10.7-2.2-21.4-4.2-32.1-6.5c-2.4-0.5-4-0.2-4.9,2.2c-1.6,4.1-4.5,5.4-8.9,4.9c-4-0.4-8.1-0.1-12.5-0.1c0,7.3,0,14.3,0.1,21.3
	c0,0.6,0.8,1.4,1.4,1.8C36.8,46,48.9,53.3,61,60.6c1.2,0.8,2.7,1.8,3.6,2.4c0.9,0.6,1.8,1.5,2.5,2.3c-0.8,0.4-1.6,0.8-2.4,1.1
	C63.5,67,63,67.6,63,69.1c0.1,7.3,0,14.7,0,22c0,2.4,0.8,4.2,3.3,5.1c0.6,0.2,1.1,1.5,1.1,2.3c0.1,10.5,0,20.9,0.1,31.4
	c0,4.6,3.6,8.7,8,9.5c4.8,0.8,9.3-1.7,11-6.1c0.5-1.5,0.8-3.1,0.8-4.7c0.1-9.7,0-19.4,0-29.1c0-0.9,0-1.8,0-2.9
	c12.4,0,24.5,0,37.1,0c-1,1.7-2,3.4-2.9,5c-4.5,7.5-9,15-13.4,22.6c-3.8,6.5-0.2,13.8,7.2,15.1c3.8,0.6,7.6-1.4,10-5.4
	c5.2-8.7,10.4-17.5,15.6-26.3c0.4-0.7,0.9-1.4,1.8-2c0,0.9,0,1.7,0,2.6c0,7.1,0,14.2,0,21.2c0,4.2,1.9,7.5,5.9,9.2
	c3.7,1.6,7.3,1.1,10.4-1.5c2.7-2.2,3.5-5.2,3.5-8.5c0-20.2,0-40.5-0.1-60.7c0-2.3,0.6-3.6,2.8-4.7c3.7-1.8,7.2-4,10.7-6.1
	C177.9,55.8,179.1,53.8,178.7,51.3z"/>
<g>
	<line x1="67.5" y1="106.5" x2="87.2" y2="106.5"/>
	<path d="M91.8,32.5c-1,8.9-7.5,20-17.8,27.3c-6.7,4.7-11.9,7.4-11.9,7.4s-1,10.3-1,18.2c0,0,0.2,4.6,0.2,6.9c0,2.3,4,4.6,4.6,5.2
		s0.4,9,0.4,9h21.9v-9.4l6.5,0c0,0,18.6-0.1,34.4,0.4c4,0.1,7.6,0.9,9.1,1l3.3-48.2c0,0-10.3-0.3-17.2-1.1
		c-9.4-1.1-21.5-3.7-21.5-3.7"/>
</g>
<g>
	<path stroke="#FFFFFF" stroke-miterlimit="10" d="M63.4,93.5h-1.3c-0.5,0-1-0.4-1-1V69.8c0-0.5,0.4-1,1-1h1.3c0.5,0,1,0.4,1,1v22.7
		C64.3,93,63.9,93.5,63.4,93.5z"/>
	<line fill="none" stroke="#FFFFFF" stroke-miterlimit="10" x1="61.4" y1="72.1" x2="64" y2="72.1"/>
	<line fill="none" stroke="#FFFFFF" stroke-miterlimit="10" x1="61.4" y1="75" x2="64" y2="75"/>
	<line fill="none" stroke="#FFFFFF" stroke-miterlimit="10" x1="61.4" y1="77.8" x2="64" y2="77.8"/>
	<line fill="none" stroke="#FFFFFF" stroke-miterlimit="10" x1="61.4" y1="81.5" x2="64" y2="81.5"/>
	<line fill="none" stroke="#FFFFFF" stroke-miterlimit="10" x1="61.4" y1="85" x2="64" y2="85"/>
	<line fill="none" stroke="#FFFFFF" stroke-miterlimit="10" x1="61.4" y1="88.9" x2="64" y2="88.9"/>
	<line fill="none" stroke="#FFFFFF" stroke-miterlimit="10" x1="61.4" y1="91.9" x2="64" y2="91.9"/>
</g>
<path d="M77,4.2c-3.5-0.4-7-0.4-10.3,0C80.8,10,89.9,23.3,88,37.5c-1.8,14.2-13.9,24.9-29,26.9c3.1,1.3,6.4,2.2,9.9,2.6
	c19.5,2.5,37-9.6,39.2-27S96.4,6.7,77,4.2z"/>
</svg>
